<?xml version="1.0" encoding="iso-8859-1"?>
<!-- Generator: Adobe Illustrator 19.0.0, SVG Export Plug-In . SVG Version: 6.00 Build 0)  -->
<svg version="1.1" id="Layer_1" xmlns="http://www.w3.org/2000/svg" xmlns:xlink="http://www.w3.org/1999/xlink" x="0px" y="0px"
	 viewBox="0 0 512.412 512.412" style="enable-background:new 0 0 512.412 512.412;" xml:space="preserve">
<g transform="translate(1 1)">
	<polygon style="fill:#FFA800;" points="502.544,110.139 178.277,110.139 212.41,7.739 476.944,7.739 	"/>
	<polygon style="fill:#FFFFFF;" points="331.877,110.139 7.61,110.139 41.744,7.739 306.277,7.739 	"/>
	<polygon style="fill:#FFE100;" points="476.944,110.139 33.21,110.139 67.344,7.739 451.344,7.739 	"/>
	<polygon style="fill:#FFA800;" points="306.277,502.673 459.877,502.673 459.877,110.139 306.277,110.139 	"/>
	<polygon style="fill:#FFFFFF;" points="50.277,502.673 203.877,502.673 203.877,110.139 50.277,110.139 	"/>
	<polygon style="fill:#FFE100;" points="75.877,502.673 434.277,502.673 434.277,110.139 75.877,110.139 	"/>
	<polygon style="fill:#3DB9F9;" points="255.077,502.673 306.277,502.673 306.277,400.273 255.077,400.273 	"/>
	<g>
		<polygon style="fill:#63D3FD;" points="203.877,502.673 280.677,502.673 280.677,400.273 203.877,400.273 		"/>
		<polygon style="fill:#63D3FD;" points="84.41,451.473 152.677,451.473 152.677,400.273 84.41,400.273 		"/>
		<polygon style="fill:#63D3FD;" points="357.477,451.473 425.744,451.473 425.744,400.273 357.477,400.273 		"/>
		<polygon style="fill:#63D3FD;" points="84.41,366.139 152.677,366.139 152.677,314.939 84.41,314.939 		"/>
		<polygon style="fill:#63D3FD;" points="357.477,366.139 425.744,366.139 425.744,314.939 357.477,314.939 		"/>
		<polygon style="fill:#63D3FD;" points="84.41,280.806 152.677,280.806 152.677,229.606 84.41,229.606 		"/>
		<polygon style="fill:#63D3FD;" points="357.477,280.806 425.744,280.806 425.744,229.606 357.477,229.606 		"/>
		<polygon style="fill:#63D3FD;" points="84.41,195.473 152.677,195.473 152.677,144.273 84.41,144.273 		"/>
		<polygon style="fill:#63D3FD;" points="220.944,366.139 289.21,366.139 289.21,314.939 220.944,314.939 		"/>
		<polygon style="fill:#63D3FD;" points="220.944,280.806 289.21,280.806 289.21,229.606 220.944,229.606 		"/>
		<polygon style="fill:#63D3FD;" points="220.944,195.473 289.21,195.473 289.21,144.273 220.944,144.273 		"/>
		<polygon style="fill:#63D3FD;" points="357.477,195.473 425.744,195.473 425.744,144.273 357.477,144.273 		"/>
	</g>
	<path d="M476.944,511.206H33.21c-5.12,0-8.533-3.413-8.533-8.533s3.413-8.533,8.533-8.533h443.733c5.12,0,8.533,3.413,8.533,8.533
		S482.064,511.206,476.944,511.206z"/>
	<path d="M459.877,511.206h-409.6c-5.12,0-8.533-3.413-8.533-8.533V110.139c0-5.12,3.413-8.533,8.533-8.533h409.6
		c5.12,0,8.533,3.413,8.533,8.533v392.533C468.41,507.793,464.997,511.206,459.877,511.206z M58.81,494.139h392.533V118.673H58.81
		V494.139z"/>
	<path d="M152.677,460.006H84.41c-5.12,0-8.533-3.413-8.533-8.533v-51.2c0-5.12,3.413-8.533,8.533-8.533h68.267
		c5.12,0,8.533,3.413,8.533,8.533v51.2C161.21,456.593,157.797,460.006,152.677,460.006z M92.944,442.939h51.2v-34.133h-51.2
		V442.939z"/>
	<path d="M425.744,460.006h-68.267c-5.12,0-8.533-3.413-8.533-8.533v-51.2c0-5.12,3.413-8.533,8.533-8.533h68.267
		c5.12,0,8.533,3.413,8.533,8.533v51.2C434.277,456.593,430.864,460.006,425.744,460.006z M366.01,442.939h51.2v-34.133h-51.2
		V442.939z"/>
	<path d="M152.677,374.673H84.41c-5.12,0-8.533-3.413-8.533-8.533v-51.2c0-5.12,3.413-8.533,8.533-8.533h68.267
		c5.12,0,8.533,3.413,8.533,8.533v51.2C161.21,371.259,157.797,374.673,152.677,374.673z M92.944,357.606h51.2v-34.133h-51.2
		V357.606z"/>
	<path d="M425.744,374.673h-68.267c-5.12,0-8.533-3.413-8.533-8.533v-51.2c0-5.12,3.413-8.533,8.533-8.533h68.267
		c5.12,0,8.533,3.413,8.533,8.533v51.2C434.277,371.259,430.864,374.673,425.744,374.673z M366.01,357.606h51.2v-34.133h-51.2
		V357.606z"/>
	<path d="M152.677,289.339H84.41c-5.12,0-8.533-3.413-8.533-8.533v-51.2c0-5.12,3.413-8.533,8.533-8.533h68.267
		c5.12,0,8.533,3.413,8.533,8.533v51.2C161.21,285.926,157.797,289.339,152.677,289.339z M92.944,272.273h51.2v-34.133h-51.2
		V272.273z"/>
	<path d="M425.744,289.339h-68.267c-5.12,0-8.533-3.413-8.533-8.533v-51.2c0-5.12,3.413-8.533,8.533-8.533h68.267
		c5.12,0,8.533,3.413,8.533,8.533v51.2C434.277,285.926,430.864,289.339,425.744,289.339z M366.01,272.273h51.2v-34.133h-51.2
		V272.273z"/>
	<path d="M152.677,204.006H84.41c-5.12,0-8.533-3.413-8.533-8.533v-51.2c0-5.12,3.413-8.533,8.533-8.533h68.267
		c5.12,0,8.533,3.413,8.533,8.533v51.2C161.21,200.593,157.797,204.006,152.677,204.006z M92.944,186.939h51.2v-34.133h-51.2
		V186.939z"/>
	<path d="M289.21,374.673h-68.267c-5.12,0-8.533-3.413-8.533-8.533v-51.2c0-5.12,3.413-8.533,8.533-8.533h68.267
		c5.12,0,8.533,3.413,8.533,8.533v51.2C297.744,371.259,294.33,374.673,289.21,374.673z M229.477,357.606h51.2v-34.133h-51.2
		V357.606z"/>
	<path d="M289.21,289.339h-68.267c-5.12,0-8.533-3.413-8.533-8.533v-51.2c0-5.12,3.413-8.533,8.533-8.533h68.267
		c5.12,0,8.533,3.413,8.533,8.533v51.2C297.744,285.926,294.33,289.339,289.21,289.339z M229.477,272.273h51.2v-34.133h-51.2
		V272.273z"/>
	<path d="M289.21,204.006h-68.267c-5.12,0-8.533-3.413-8.533-8.533v-51.2c0-5.12,3.413-8.533,8.533-8.533h68.267
		c5.12,0,8.533,3.413,8.533,8.533v51.2C297.744,200.593,294.33,204.006,289.21,204.006z M229.477,186.939h51.2v-34.133h-51.2
		V186.939z"/>
	<path d="M425.744,204.006h-68.267c-5.12,0-8.533-3.413-8.533-8.533v-51.2c0-5.12,3.413-8.533,8.533-8.533h68.267
		c5.12,0,8.533,3.413,8.533,8.533v51.2C434.277,200.593,430.864,204.006,425.744,204.006z M366.01,186.939h51.2v-34.133h-51.2
		V186.939z"/>
	<path d="M502.544,118.673H7.61c-2.56,0-5.12-1.707-6.827-3.413c-1.707-2.56-2.56-5.12-0.853-7.68l34.133-102.4
		c0.853-3.413,4.267-5.973,7.68-5.973h435.2c4.267,0,7.68,2.56,8.533,6.827l25.6,102.4c0.853,2.56,0,5.12-1.707,7.68
		C507.664,118.673,505.104,118.673,502.544,118.673z M19.557,101.606H491.45l-21.333-85.333h-422.4L19.557,101.606z"/>
	<path d="M135.61,50.406H30.65c-5.12,0-8.533-3.413-8.533-8.533s3.413-8.533,8.533-8.533h104.96c5.12,0,8.533,3.413,8.533,8.533
		S140.73,50.406,135.61,50.406z"/>
	<path d="M110.01,84.539H18.704c-5.12,0-8.533-3.413-8.533-8.533s3.413-8.533,8.533-8.533h91.307c5.12,0,8.533,3.413,8.533,8.533
		S115.13,84.539,110.01,84.539z"/>
	<path d="M485.477,50.406h-102.4c-5.12,0-8.533-3.413-8.533-8.533s3.413-8.533,8.533-8.533h102.4c5.12,0,8.533,3.413,8.533,8.533
		S490.597,50.406,485.477,50.406z"/>
	<path d="M494.01,84.539h-85.333c-5.12,0-8.533-3.413-8.533-8.533s3.413-8.533,8.533-8.533h85.333c5.12,0,8.533,3.413,8.533,8.533
		S499.13,84.539,494.01,84.539z"/>
	<path d="M255.077,511.206h-51.2c-5.12,0-8.533-3.413-8.533-8.533v-102.4c0-5.12,3.413-8.533,8.533-8.533h51.2
		c5.12,0,8.533,3.413,8.533,8.533v102.4C263.61,507.793,260.197,511.206,255.077,511.206z M212.41,494.139h34.133v-85.333H212.41
		V494.139z"/>
	<path d="M306.277,511.206h-51.2c-5.12,0-8.533-3.413-8.533-8.533v-102.4c0-5.12,3.413-8.533,8.533-8.533h51.2
		c5.12,0,8.533,3.413,8.533,8.533v102.4C314.81,507.793,311.397,511.206,306.277,511.206z M263.61,494.139h34.133v-85.333H263.61
		V494.139z"/>
</g>
<g>
</g>
<g>
</g>
<g>
</g>
<g>
</g>
<g>
</g>
<g>
</g>
<g>
</g>
<g>
</g>
<g>
</g>
<g>
</g>
<g>
</g>
<g>
</g>
<g>
</g>
<g>
</g>
<g>
</g>
</svg>
