<?xml version="1.0" encoding="iso-8859-1"?>
<!-- Generator: Adobe Illustrator 19.0.0, SVG Export Plug-In . SVG Version: 6.00 Build 0)  -->
<svg version="1.1" id="Layer_1" xmlns="http://www.w3.org/2000/svg" xmlns:xlink="http://www.w3.org/1999/xlink" x="0px" y="0px"
	 viewBox="0 0 512 512" style="enable-background:new 0 0 512 512;" xml:space="preserve">
<path style="fill:#CEE8FA;" d="M304.26,430.309h124.728V81.69H83.014v348.617h134.773 M222.073,430.309H103.459l96.134-170.963
	l104.666,170.963 M321.616,243.941c-24.709,0-44.738-20.029-44.738-44.738c0-24.707,20.029-44.738,44.738-44.738
	c24.709,0,44.738,20.031,44.738,44.738C366.354,223.912,346.324,243.941,321.616,243.941z"/>
<g>
	<path style="fill:#2D527C;" d="M304.273,445.223c-0.455,0-0.91-0.021-1.362-0.061c-2.064-0.185-4.007-0.79-5.743-1.731
		c-1.955-1.053-3.695-2.556-5.054-4.466c-0.246-0.343-0.477-0.698-0.693-1.063L200.14,288.801l-71.185,126.596h93.119
		c8.236,0,14.913,6.678,14.913,14.913s-6.676,14.913-14.913,14.913H83.013c-8.236,0-14.913-6.678-14.913-14.913V81.69
		c0-8.235,6.676-14.913,14.913-14.913h345.973c8.236,0,14.913,6.678,14.913,14.913v348.617c0,8.235-6.676,14.913-14.913,14.913
		H304.521C304.438,445.223,304.355,445.223,304.273,445.223z M312.614,415.396h101.46V96.603H97.925v313.121l88.668-157.686
		c2.592-4.611,7.432-7.503,12.722-7.601c5.27-0.106,10.233,2.613,12.995,7.122L312.614,415.396z M321.616,258.854
		c-32.891,0-59.651-26.759-59.651-59.651s26.759-59.651,59.651-59.651s59.651,26.759,59.651,59.651S354.508,258.854,321.616,258.854
		z M321.616,169.378c-16.446,0-29.825,13.38-29.825,29.825s13.38,29.825,29.825,29.825c16.446,0,29.825-13.38,29.825-29.825
		S338.06,169.378,321.616,169.378z"/>
	<path style="fill:#2D527C;" d="M494.354,100.411c-8.236,0-14.913-6.678-14.913-14.913V29.825h-55.673
		c-8.236,0-14.913-6.678-14.913-14.913S415.532,0,423.768,0h70.586c8.236,0,14.913,6.678,14.913,14.913v70.586
		C509.266,93.733,502.59,100.411,494.354,100.411z"/>
	<path style="fill:#2D527C;" d="M17.646,100.411c-8.236,0-14.913-6.678-14.913-14.913V14.913C2.733,6.678,9.41,0,17.646,0h70.586
		c8.236,0,14.913,6.678,14.913,14.913s-6.676,14.913-14.913,14.913H32.559v55.673C32.559,93.733,25.882,100.411,17.646,100.411z"/>
	<path style="fill:#2D527C;" d="M88.234,512H17.646c-8.236,0-14.913-6.678-14.913-14.913v-70.586
		c0-8.235,6.676-14.913,14.913-14.913s14.913,6.678,14.913,14.913v55.673h55.673c8.236,0,14.913,6.678,14.913,14.913
		C103.145,505.322,96.468,512,88.234,512z"/>
	<path style="fill:#2D527C;" d="M494.354,512h-70.586c-8.236,0-14.913-6.678-14.913-14.913c0-8.235,6.676-14.913,14.913-14.913
		h55.673v-55.673c0-8.235,6.676-14.913,14.913-14.913s14.913,6.678,14.913,14.913v70.586C509.266,505.322,502.59,512,494.354,512z"
		/>
</g>
<g>
</g>
<g>
</g>
<g>
</g>
<g>
</g>
<g>
</g>
<g>
</g>
<g>
</g>
<g>
</g>
<g>
</g>
<g>
</g>
<g>
</g>
<g>
</g>
<g>
</g>
<g>
</g>
<g>
</g>
</svg>
